<svg xmlns="http://www.w3.org/2000/svg" width="200" height="200" xml:space="preserve"><path fill="#FFF" d="M0 0h1160v1160H0z"/><circle cx="50" cy="50" r="30" transform="matrix(.4 0 0 .4 520 80)" style="fill:#000"/><circle cx="50" cy="50" r="30" transform="matrix(.4 0 0 .4 560 80)" style="fill:#000"/><circle cx="50" cy="50" r="30" transform="matrix(.4 0 0 .4 720 80)" style="fill:#000"/><circle cx="50" cy="50" r="30" transform="matrix(.4 0 0 .4 480 120)" style="fill:#000"/><circle cx="50" cy="50" r="30" transform="matrix(.4 0 0 .4 520 120)" style="fill:#000"/><circle cx="50" cy="50" r="30" transform="matrix(.4 0 0 .4 560 120)" style="fill:#000"/><circle cx="50" cy="50" r="30" transform="matrix(.4 0 0 .4 680 120)" style="fill:#000"/><circle cx="50" cy="50" r="30" transform="matrix(.4 0 0 .4 720 120)" style="fill:#000"/><circle cx="50" cy="50" r="30" transform="matrix(.4 0 0 .4 400 160)" style="fill:#000"/><circle cx="50" cy="50" r="30" transform="matrix(.4 0 0 .4 440 160)" style="fill:#000"/><circle cx="50" cy="50" r="30" transform="matrix(.4 0 0 .4 520 160)" style="fill:#000"/><circle cx="50" cy="50" r="30" transform="matrix(.4 0 0 .4 640 160)" style="fill:#000"/><circle cx="50" cy="50" r="30" transform="matrix(.4 0 0 .4 680 160)" style="fill:#000"/><circle cx="50" cy="50" r="30" transform="matrix(.4 0 0 .4 720 160)" style="fill:#000"/><circle cx="50" cy="50" r="30" transform="matrix(.4 0 0 .4 400 200)" style="fill:#000"/><circle cx="50" cy="50" r="30" transform="matrix(.4 0 0 .4 480 200)" style="fill:#000"/><circle cx="50" cy="50" r="30" transform="matrix(.4 0 0 .4 520 200)" style="fill:#000"/><circle cx="50" cy="50" r="30" transform="matrix(.4 0 0 .4 560 200)" style="fill:#000"/><circle cx="50" cy="50" r="30" transform="matrix(.4 0 0 .4 600 200)" style="fill:#000"/><circle cx="50" cy="50" r="30" transform="matrix(.4 0 0 .4 400 240)" style="fill:#000"/><circle cx="50" cy="50" r="30" transform="matrix(.4 0 0 .4 440 240)" style="fill:#000"/><circle cx="50" cy="50" r="30" transform="matrix(.4 0 0 .4 480 240)" style="fill:#000"/><circle cx="50" cy="50" r="30" transform="matrix(.4 0 0 .4 600 240)" style="fill:#000"/><circle cx="50" cy="50" r="30" transform="matrix(.4 0 0 .4 720 240)" style="fill:#000"/><circle cx="50" cy="50" r="30" transform="matrix(.4 0 0 .4 400 280)" style="fill:#000"/><circle cx="50" cy="50" r="30" transform="matrix(.4 0 0 .4 440 280)" style="fill:#000"/><circle cx="50" cy="50" r="30" transform="matrix(.4 0 0 .4 560 280)" style="fill:#000"/><circle cx="50" cy="50" r="30" transform="matrix(.4 0 0 .4 600 280)" style="fill:#000"/><circle cx="50" cy="50" r="30" transform="matrix(.4 0 0 .4 640 280)" style="fill:#000"/><circle cx="50" cy="50" r="30" transform="matrix(.4 0 0 .4 680 280)" style="fill:#000"/><circle cx="50" cy="50" r="30" transform="matrix(.4 0 0 .4 400 320)" style="fill:#000"/><circle cx="50" cy="50" r="30" transform="matrix(.4 0 0 .4 480 320)" style="fill:#000"/><circle cx="50" cy="50" r="30" transform="matrix(.4 0 0 .4 560 320)" style="fill:#000"/><circle cx="50" cy="50" r="30" transform="matrix(.4 0 0 .4 640 320)" style="fill:#000"/><circle cx="50" cy="50" r="30" transform="matrix(.4 0 0 .4 720 320)" style="fill:#000"/><circle cx="50" cy="50" r="30" transform="matrix(.4 0 0 .4 400 360)" style="fill:#000"/><circle cx="50" cy="50" r="30" transform="matrix(.4 0 0 .4 440 360)" style="fill:#000"/><circle cx="50" cy="50" r="30" transform="matrix(.4 0 0 .4 480 360)" style="fill:#000"/><circle cx="50" cy="50" r="30" transform="matrix(.4 0 0 .4 560 360)" style="fill:#000"/><circle cx="50" cy="50" r="30" transform="matrix(.4 0 0 .4 640 360)" style="fill:#000"/><circle cx="50" cy="50" r="30" transform="matrix(.4 0 0 .4 720 360)" style="fill:#000"/><circle cx="50" cy="50" r="30" transform="matrix(.4 0 0 .4 80 400)" style="fill:#000"/><circle cx="50" cy="50" r="30" transform="matrix(.4 0 0 .4 160 400)" style="fill:#000"/><circle cx="50" cy="50" r="30" transform="matrix(.4 0 0 .4 200 400)" style="fill:#000"/><circle cx="50" cy="50" r="30" transform="matrix(.4 0 0 .4 240 400)" style="fill:#000"/><circle cx="50" cy="50" r="30" transform="matrix(.4 0 0 .4 280 400)" style="fill:#000"/><circle cx="50" cy="50" r="30" transform="matrix(.4 0 0 .4 320 400)" style="fill:#000"/><circle cx="50" cy="50" r="30" transform="matrix(.4 0 0 .4 480 400)" style="fill:#000"/><circle cx="50" cy="50" r="30" transform="matrix(.4 0 0 .4 600 400)" style="fill:#000"/><circle cx="50" cy="50" r="30" transform="matrix(.4 0 0 .4 640 400)" style="fill:#000"/><circle cx="50" cy="50" r="30" transform="matrix(.4 0 0 .4 800 400)" style="fill:#000"/><circle cx="50" cy="50" r="30" transform="matrix(.4 0 0 .4 840 400)" style="fill:#000"/><circle cx="50" cy="50" r="30" transform="matrix(.4 0 0 .4 880 400)" style="fill:#000"/><circle cx="50" cy="50" r="30" transform="matrix(.4 0 0 .4 920 400)" style="fill:#000"/><circle cx="50" cy="50" r="30" transform="matrix(.4 0 0 .4 960 400)" style="fill:#000"/><circle cx="50" cy="50" r="30" transform="matrix(.4 0 0 .4 80 440)" style="fill:#000"/><circle cx="50" cy="50" r="30" transform="matrix(.4 0 0 .4 160 440)" style="fill:#000"/><circle cx="50" cy="50" r="30" transform="matrix(.4 0 0 .4 200 440)" style="fill:#000"/><circle cx="50" cy="50" r="30" transform="matrix(.4 0 0 .4 280 440)" style="fill:#000"/><circle cx="50" cy="50" r="30" transform="matrix(.4 0 0 .4 440 440)" style="fill:#000"/><circle cx="50" cy="50" r="30" transform="matrix(.4 0 0 .4 480 440)" style="fill:#000"/><circle cx="50" cy="50" r="30" transform="matrix(.4 0 0 .4 600 440)" style="fill:#000"/><circle cx="50" cy="50" r="30" transform="matrix(.4 0 0 .4 760 440)" style="fill:#000"/><circle cx="50" cy="50" r="30" transform="matrix(.4 0 0 .4 840 440)" style="fill:#000"/><circle cx="50" cy="50" r="30" transform="matrix(.4 0 0 .4 1000 440)" style="fill:#000"/><circle cx="50" cy="50" r="30" transform="matrix(.4 0 0 .4 120 480)" style="fill:#000"/><circle cx="50" cy="50" r="30" transform="matrix(.4 0 0 .4 200 480)" style="fill:#000"/><circle cx="50" cy="50" r="30" transform="matrix(.4 0 0 .4 280 480)" style="fill:#000"/><circle cx="50" cy="50" r="30" transform="matrix(.4 0 0 .4 320 480)" style="fill:#000"/><circle cx="50" cy="50" r="30" transform="matrix(.4 0 0 .4 400 480)" style="fill:#000"/><circle cx="50" cy="50" r="30" transform="matrix(.4 0 0 .4 480 480)" style="fill:#000"/><circle cx="50" cy="50" r="30" transform="matrix(.4 0 0 .4 520 480)" style="fill:#000"/><circle cx="50" cy="50" r="30" transform="matrix(.4 0 0 .4 680 480)" style="fill:#000"/><circle cx="50" cy="50" r="30" transform="matrix(.4 0 0 .4 720 480)" style="fill:#000"/><circle cx="50" cy="50" r="30" transform="matrix(.4 0 0 .4 760 480)" style="fill:#000"/><circle cx="50" cy="50" r="30" transform="matrix(.4 0 0 .4 800 480)" style="fill:#000"/><circle cx="50" cy="50" r="30" transform="matrix(.4 0 0 .4 840 480)" style="fill:#000"/><circle cx="50" cy="50" r="30" transform="matrix(.4 0 0 .4 880 480)" style="fill:#000"/><circle cx="50" cy="50" r="30" transform="matrix(.4 0 0 .4 920 480)" style="fill:#000"/><circle cx="50" cy="50" r="30" transform="matrix(.4 0 0 .4 1000 480)" style="fill:#000"/><circle cx="50" cy="50" r="30" transform="matrix(.4 0 0 .4 1040 480)" style="fill:#000"/><circle cx="50" cy="50" r="30" transform="matrix(.4 0 0 .4 80 520)" style="fill:#000"/><circle cx="50" cy="50" r="30" transform="matrix(.4 0 0 .4 400 520)" style="fill:#000"/><circle cx="50" cy="50" r="30" transform="matrix(.4 0 0 .4 440 520)" style="fill:#000"/><circle cx="50" cy="50" r="30" transform="matrix(.4 0 0 .4 520 520)" style="fill:#000"/><circle cx="50" cy="50" r="30" transform="matrix(.4 0 0 .4 640 520)" style="fill:#000"/><circle cx="50" cy="50" r="30" transform="matrix(.4 0 0 .4 680 520)" style="fill:#000"/><circle cx="50" cy="50" r="30" transform="matrix(.4 0 0 .4 720 520)" style="fill:#000"/><circle cx="50" cy="50" r="30" transform="matrix(.4 0 0 .4 760 520)" style="fill:#000"/><circle cx="50" cy="50" r="30" transform="matrix(.4 0 0 .4 840 520)" style="fill:#000"/><circle cx="50" cy="50" r="30" transform="matrix(.4 0 0 .4 1040 520)" style="fill:#000"/><circle cx="50" cy="50" r="30" transform="matrix(.4 0 0 .4 80 560)" style="fill:#000"/><circle cx="50" cy="50" r="30" transform="matrix(.4 0 0 .4 120 560)" style="fill:#000"/><circle cx="50" cy="50" r="30" transform="matrix(.4 0 0 .4 160 560)" style="fill:#000"/><circle cx="50" cy="50" r="30" transform="matrix(.4 0 0 .4 200 560)" style="fill:#000"/><circle cx="50" cy="50" r="30" transform="matrix(.4 0 0 .4 240 560)" style="fill:#000"/><circle cx="50" cy="50" r="30" transform="matrix(.4 0 0 .4 320 560)" style="fill:#000"/><circle cx="50" cy="50" r="30" transform="matrix(.4 0 0 .4 360 560)" style="fill:#000"/><circle cx="50" cy="50" r="30" transform="matrix(.4 0 0 .4 480 560)" style="fill:#000"/><circle cx="50" cy="50" r="30" transform="matrix(.4 0 0 .4 520 560)" style="fill:#000"/><circle cx="50" cy="50" r="30" transform="matrix(.4 0 0 .4 560 560)" style="fill:#000"/><circle cx="50" cy="50" r="30" transform="matrix(.4 0 0 .4 600 560)" style="fill:#000"/><circle cx="50" cy="50" r="30" transform="matrix(.4 0 0 .4 640 560)" style="fill:#000"/><circle cx="50" cy="50" r="30" transform="matrix(.4 0 0 .4 680 560)" style="fill:#000"/><circle cx="50" cy="50" r="30" transform="matrix(.4 0 0 .4 720 560)" style="fill:#000"/><circle cx="50" cy="50" r="30" transform="matrix(.4 0 0 .4 760 560)" style="fill:#000"/><circle cx="50" cy="50" r="30" transform="matrix(.4 0 0 .4 800 560)" style="fill:#000"/><circle cx="50" cy="50" r="30" transform="matrix(.4 0 0 .4 840 560)" style="fill:#000"/><circle cx="50" cy="50" r="30" transform="matrix(.4 0 0 .4 880 560)" style="fill:#000"/><circle cx="50" cy="50" r="30" transform="matrix(.4 0 0 .4 960 560)" style="fill:#000"/><circle cx="50" cy="50" r="30" transform="matrix(.4 0 0 .4 1000 560)" style="fill:#000"/><circle cx="50" cy="50" r="30" transform="matrix(.4 0 0 .4 1040 560)" style="fill:#000"/><circle cx="50" cy="50" r="30" transform="matrix(.4 0 0 .4 80 600)" style="fill:#000"/><circle cx="50" cy="50" r="30" transform="matrix(.4 0 0 .4 480 600)" style="fill:#000"/><circle cx="50" cy="50" r="30" transform="matrix(.4 0 0 .4 560 600)" style="fill:#000"/><circle cx="50" cy="50" r="30" transform="matrix(.4 0 0 .4 720 600)" style="fill:#000"/><circle cx="50" cy="50" r="30" transform="matrix(.4 0 0 .4 760 600)" style="fill:#000"/><circle cx="50" cy="50" r="30" transform="matrix(.4 0 0 .4 840 600)" style="fill:#000"/><circle cx="50" cy="50" r="30" transform="matrix(.4 0 0 .4 920 600)" style="fill:#000"/><circle cx="50" cy="50" r="30" transform="matrix(.4 0 0 .4 1000 600)" style="fill:#000"/><circle cx="50" cy="50" r="30" transform="matrix(.4 0 0 .4 80 640)" style="fill:#000"/><circle cx="50" cy="50" r="30" transform="matrix(.4 0 0 .4 200 640)" style="fill:#000"/><circle cx="50" cy="50" r="30" transform="matrix(.4 0 0 .4 280 640)" style="fill:#000"/><circle cx="50" cy="50" r="30" transform="matrix(.4 0 0 .4 320 640)" style="fill:#000"/><circle cx="50" cy="50" r="30" transform="matrix(.4 0 0 .4 360 640)" style="fill:#000"/><circle cx="50" cy="50" r="30" transform="matrix(.4 0 0 .4 400 640)" style="fill:#000"/><circle cx="50" cy="50" r="30" transform="matrix(.4 0 0 .4 640 640)" style="fill:#000"/><circle cx="50" cy="50" r="30" transform="matrix(.4 0 0 .4 680 640)" style="fill:#000"/><circle cx="50" cy="50" r="30" transform="matrix(.4 0 0 .4 760 640)" style="fill:#000"/><circle cx="50" cy="50" r="30" transform="matrix(.4 0 0 .4 800 640)" style="fill:#000"/><circle cx="50" cy="50" r="30" transform="matrix(.4 0 0 .4 840 640)" style="fill:#000"/><circle cx="50" cy="50" r="30" transform="matrix(.4 0 0 .4 880 640)" style="fill:#000"/><circle cx="50" cy="50" r="30" transform="matrix(.4 0 0 .4 920 640)" style="fill:#000"/><circle cx="50" cy="50" r="30" transform="matrix(.4 0 0 .4 1000 640)" style="fill:#000"/><circle cx="50" cy="50" r="30" transform="matrix(.4 0 0 .4 1040 640)" style="fill:#000"/><circle cx="50" cy="50" r="30" transform="matrix(.4 0 0 .4 80 680)" style="fill:#000"/><circle cx="50" cy="50" r="30" transform="matrix(.4 0 0 .4 160 680)" style="fill:#000"/><circle cx="50" cy="50" r="30" transform="matrix(.4 0 0 .4 200 680)" style="fill:#000"/><circle cx="50" cy="50" r="30" transform="matrix(.4 0 0 .4 400 680)" style="fill:#000"/><circle cx="50" cy="50" r="30" transform="matrix(.4 0 0 .4 560 680)" style="fill:#000"/><circle cx="50" cy="50" r="30" transform="matrix(.4 0 0 .4 720 680)" style="fill:#000"/><circle cx="50" cy="50" r="30" transform="matrix(.4 0 0 .4 760 680)" style="fill:#000"/><circle cx="50" cy="50" r="30" transform="matrix(.4 0 0 .4 840 680)" style="fill:#000"/><circle cx="50" cy="50" r="30" transform="matrix(.4 0 0 .4 880 680)" style="fill:#000"/><circle cx="50" cy="50" r="30" transform="matrix(.4 0 0 .4 1040 680)" style="fill:#000"/><circle cx="50" cy="50" r="30" transform="matrix(.4 0 0 .4 80 720)" style="fill:#000"/><circle cx="50" cy="50" r="30" transform="matrix(.4 0 0 .4 280 720)" style="fill:#000"/><circle cx="50" cy="50" r="30" transform="matrix(.4 0 0 .4 320 720)" style="fill:#000"/><circle cx="50" cy="50" r="30" transform="matrix(.4 0 0 .4 400 720)" style="fill:#000"/><circle cx="50" cy="50" r="30" transform="matrix(.4 0 0 .4 440 720)" style="fill:#000"/><circle cx="50" cy="50" r="30" transform="matrix(.4 0 0 .4 480 720)" style="fill:#000"/><circle cx="50" cy="50" r="30" transform="matrix(.4 0 0 .4 520 720)" style="fill:#000"/><circle cx="50" cy="50" r="30" transform="matrix(.4 0 0 .4 560 720)" style="fill:#000"/><circle cx="50" cy="50" r="30" transform="matrix(.4 0 0 .4 600 720)" style="fill:#000"/><circle cx="50" cy="50" r="30" transform="matrix(.4 0 0 .4 640 720)" style="fill:#000"/><circle cx="50" cy="50" r="30" transform="matrix(.4 0 0 .4 720 720)" style="fill:#000"/><circle cx="50" cy="50" r="30" transform="matrix(.4 0 0 .4 760 720)" style="fill:#000"/><circle cx="50" cy="50" r="30" transform="matrix(.4 0 0 .4 800 720)" style="fill:#000"/><circle cx="50" cy="50" r="30" transform="matrix(.4 0 0 .4 840 720)" style="fill:#000"/><circle cx="50" cy="50" r="30" transform="matrix(.4 0 0 .4 880 720)" style="fill:#000"/><circle cx="50" cy="50" r="30" transform="matrix(.4 0 0 .4 960 720)" style="fill:#000"/><circle cx="50" cy="50" r="30" transform="matrix(.4 0 0 .4 400 760)" style="fill:#000"/><circle cx="50" cy="50" r="30" transform="matrix(.4 0 0 .4 520 760)" style="fill:#000"/><circle cx="50" cy="50" r="30" transform="matrix(.4 0 0 .4 640 760)" style="fill:#000"/><circle cx="50" cy="50" r="30" transform="matrix(.4 0 0 .4 680 760)" style="fill:#000"/><circle cx="50" cy="50" r="30" transform="matrix(.4 0 0 .4 720 760)" style="fill:#000"/><circle cx="50" cy="50" r="30" transform="matrix(.4 0 0 .4 880 760)" style="fill:#000"/><circle cx="50" cy="50" r="30" transform="matrix(.4 0 0 .4 920 760)" style="fill:#000"/><circle cx="50" cy="50" r="30" transform="matrix(.4 0 0 .4 600 800)" style="fill:#000"/><circle cx="50" cy="50" r="30" transform="matrix(.4 0 0 .4 720 800)" style="fill:#000"/><circle cx="50" cy="50" r="30" transform="matrix(.4 0 0 .4 800 800)" style="fill:#000"/><circle cx="50" cy="50" r="30" transform="matrix(.4 0 0 .4 880 800)" style="fill:#000"/><circle cx="50" cy="50" r="30" transform="matrix(.4 0 0 .4 960 800)" style="fill:#000"/><circle cx="50" cy="50" r="30" transform="matrix(.4 0 0 .4 1000 800)" style="fill:#000"/><circle cx="50" cy="50" r="30" transform="matrix(.4 0 0 .4 1040 800)" style="fill:#000"/><circle cx="50" cy="50" r="30" transform="matrix(.4 0 0 .4 400 840)" style="fill:#000"/><circle cx="50" cy="50" r="30" transform="matrix(.4 0 0 .4 440 840)" style="fill:#000"/><circle cx="50" cy="50" r="30" transform="matrix(.4 0 0 .4 480 840)" style="fill:#000"/><circle cx="50" cy="50" r="30" transform="matrix(.4 0 0 .4 520 840)" style="fill:#000"/><circle cx="50" cy="50" r="30" transform="matrix(.4 0 0 .4 560 840)" style="fill:#000"/><circle cx="50" cy="50" r="30" transform="matrix(.4 0 0 .4 720 840)" style="fill:#000"/><circle cx="50" cy="50" r="30" transform="matrix(.4 0 0 .4 880 840)" style="fill:#000"/><circle cx="50" cy="50" r="30" transform="matrix(.4 0 0 .4 920 840)" style="fill:#000"/><circle cx="50" cy="50" r="30" transform="matrix(.4 0 0 .4 400 880)" style="fill:#000"/><circle cx="50" cy="50" r="30" transform="matrix(.4 0 0 .4 440 880)" style="fill:#000"/><circle cx="50" cy="50" r="30" transform="matrix(.4 0 0 .4 480 880)" style="fill:#000"/><circle cx="50" cy="50" r="30" transform="matrix(.4 0 0 .4 600 880)" style="fill:#000"/><circle cx="50" cy="50" r="30" transform="matrix(.4 0 0 .4 640 880)" style="fill:#000"/><circle cx="50" cy="50" r="30" transform="matrix(.4 0 0 .4 680 880)" style="fill:#000"/><circle cx="50" cy="50" r="30" transform="matrix(.4 0 0 .4 720 880)" style="fill:#000"/><circle cx="50" cy="50" r="30" transform="matrix(.4 0 0 .4 760 880)" style="fill:#000"/><circle cx="50" cy="50" r="30" transform="matrix(.4 0 0 .4 800 880)" style="fill:#000"/><circle cx="50" cy="50" r="30" transform="matrix(.4 0 0 .4 840 880)" style="fill:#000"/><circle cx="50" cy="50" r="30" transform="matrix(.4 0 0 .4 880 880)" style="fill:#000"/><circle cx="50" cy="50" r="30" transform="matrix(.4 0 0 .4 960 880)" style="fill:#000"/><circle cx="50" cy="50" r="30" transform="matrix(.4 0 0 .4 400 920)" style="fill:#000"/><circle cx="50" cy="50" r="30" transform="matrix(.4 0 0 .4 440 920)" style="fill:#000"/><circle cx="50" cy="50" r="30" transform="matrix(.4 0 0 .4 520 920)" style="fill:#000"/><circle cx="50" cy="50" r="30" transform="matrix(.4 0 0 .4 600 920)" style="fill:#000"/><circle cx="50" cy="50" r="30" transform="matrix(.4 0 0 .4 720 920)" style="fill:#000"/><circle cx="50" cy="50" r="30" transform="matrix(.4 0 0 .4 800 920)" style="fill:#000"/><circle cx="50" cy="50" r="30" transform="matrix(.4 0 0 .4 880 920)" style="fill:#000"/><circle cx="50" cy="50" r="30" transform="matrix(.4 0 0 .4 920 920)" style="fill:#000"/><circle cx="50" cy="50" r="30" transform="matrix(.4 0 0 .4 960 920)" style="fill:#000"/><circle cx="50" cy="50" r="30" transform="matrix(.4 0 0 .4 1000 920)" style="fill:#000"/><circle cx="50" cy="50" r="30" transform="matrix(.4 0 0 .4 1040 920)" style="fill:#000"/><circle cx="50" cy="50" r="30" transform="matrix(.4 0 0 .4 400 960)" style="fill:#000"/><circle cx="50" cy="50" r="30" transform="matrix(.4 0 0 .4 440 960)" style="fill:#000"/><circle cx="50" cy="50" r="30" transform="matrix(.4 0 0 .4 920 960)" style="fill:#000"/><circle cx="50" cy="50" r="30" transform="matrix(.4 0 0 .4 960 960)" style="fill:#000"/><circle cx="50" cy="50" r="30" transform="matrix(.4 0 0 .4 1040 960)" style="fill:#000"/><circle cx="50" cy="50" r="30" transform="matrix(.4 0 0 .4 440 1000)" style="fill:#000"/><circle cx="50" cy="50" r="30" transform="matrix(.4 0 0 .4 480 1000)" style="fill:#000"/><circle cx="50" cy="50" r="30" transform="matrix(.4 0 0 .4 520 1000)" style="fill:#000"/><circle cx="50" cy="50" r="30" transform="matrix(.4 0 0 .4 560 1000)" style="fill:#000"/><circle cx="50" cy="50" r="30" transform="matrix(.4 0 0 .4 640 1000)" style="fill:#000"/><circle cx="50" cy="50" r="30" transform="matrix(.4 0 0 .4 680 1000)" style="fill:#000"/><circle cx="50" cy="50" r="30" transform="matrix(.4 0 0 .4 720 1000)" style="fill:#000"/><circle cx="50" cy="50" r="30" transform="matrix(.4 0 0 .4 760 1000)" style="fill:#000"/><circle cx="50" cy="50" r="30" transform="matrix(.4 0 0 .4 840 1000)" style="fill:#000"/><circle cx="50" cy="50" r="30" transform="matrix(.4 0 0 .4 880 1000)" style="fill:#000"/><circle cx="50" cy="50" r="30" transform="matrix(.4 0 0 .4 920 1000)" style="fill:#000"/><circle cx="50" cy="50" r="30" transform="matrix(.4 0 0 .4 1040 1000)" style="fill:#000"/><circle cx="50" cy="50" r="30" transform="matrix(.4 0 0 .4 400 1040)" style="fill:#000"/><circle cx="50" cy="50" r="30" transform="matrix(.4 0 0 .4 440 1040)" style="fill:#000"/><circle cx="50" cy="50" r="30" transform="matrix(.4 0 0 .4 600 1040)" style="fill:#000"/><circle cx="50" cy="50" r="30" transform="matrix(.4 0 0 .4 640 1040)" style="fill:#000"/><circle cx="50" cy="50" r="30" transform="matrix(.4 0 0 .4 840 1040)" style="fill:#000"/><circle cx="50" cy="50" r="30" transform="matrix(.4 0 0 .4 880 1040)" style="fill:#000"/><circle cx="50" cy="50" r="30" transform="matrix(.4 0 0 .4 920 1040)" style="fill:#000"/><circle cx="50" cy="50" r="30" transform="matrix(.4 0 0 .4 960 1040)" style="fill:#000"/><circle cx="50" cy="50" r="30" transform="matrix(.4 0 0 .4 1000 1040)" style="fill:#000"/><circle cx="50" cy="50" r="30" transform="matrix(.4 0 0 .4 1040 1040)" style="fill:#000"/><g style="fill:#000"><path style="fill:none" d="M85 66.221V33.75C85 23.411 76.414 15 65.859 15H34.14C23.586 15 15 23.411 15 33.75v51.246l50.855-.016C76.414 84.98 85 76.564 85 66.221z" transform="matrix(-2.8 0 0 2.8 360 80)"/><path d="M80 265.419V174.5c0-52.105 42.896-94.5 95.595-94.5h88.813C317.104 80 360 122.395 360 174.5V360l-184.405-.056c-52.699 0-95.595-42.392-95.595-94.525zm42 0c0 28.963 24.04 52.528 53.606 52.528l142.394.042V174.5c0-28.95-24.04-52.5-53.592-52.5h-88.813C146.04 122 122 145.55 122 174.5v90.919z"/></g><g style="fill:#000"><path style="fill:none" d="M85 66.221V33.75C85 23.411 76.414 15 65.859 15H34.14C23.586 15 15 23.411 15 33.75v51.246l50.855-.016C76.414 84.98 85 76.564 85 66.221z" transform="matrix(2.8 0 0 2.8 800 80)"/><path d="M1080 265.419V174.5c0-52.105-42.896-94.5-95.595-94.5h-88.813C842.896 80 800 122.395 800 174.5V360l184.405-.056c52.699 0 95.595-42.392 95.595-94.525zm-42 0c0 28.963-24.04 52.528-53.606 52.528L842 317.989V174.5c0-28.95 24.04-52.5 53.592-52.5h88.813c29.554 0 53.595 23.55 53.595 52.5v90.919z"/></g><g style="fill:#000"><path style="fill:none" d="M85 66.221V33.75C85 23.411 76.414 15 65.859 15H34.14C23.586 15 15 23.411 15 33.75v51.246l50.855-.016C76.414 84.98 85 76.564 85 66.221z" transform="rotate(180 180 540) scale(2.8)"/><path d="M80 894.581V985.5c0 52.105 42.896 94.5 95.595 94.5h88.813c52.696 0 95.592-42.395 95.592-94.5V800l-184.405.056c-52.699 0-95.595 42.392-95.595 94.525zm42 0c0-28.963 24.04-52.528 53.606-52.528L318 842.011V985.5c0 28.95-24.04 52.5-53.592 52.5h-88.813C146.04 1038 122 1014.45 122 985.5v-90.919z"/></g><circle cx="50" cy="50" r="50" transform="translate(160 160) scale(1.17647)" style="fill:#000"/><circle cx="50" cy="50" r="50" transform="translate(880 160) scale(1.17647)" style="fill:#000"/><circle cx="50" cy="50" r="50" transform="translate(160 880) scale(1.17647)" style="fill:#000"/></svg>